<svg width="510.27998046874995px" height="122.02138671875px" xmlns="http://www.w3.org/2000/svg" viewBox="-5.139990234374977 13.989306640625003 510.27998046874995 122.02138671875" style="background: rgba(0, 0, 0, 0);" preserveAspectRatio="xMidYMid"><defs><linearGradient id="editing-gradow-gradient" x1="0" x2="1" y1="0.5" y2="0.5" gradientUnits="objectBoundingBox"><stop offset="0" stop-color="rgba(100%,84.57142857142857%,0%,0.933)"></stop><stop offset="1" stop-color="#00ff1c"></stop></linearGradient><filter id="editing-gradow-filter" x="-100%" y="-100%" width="300%" height="300%"><feFlood flood-color="#fffcd9" result="flood"></feFlood><feComposite operator="in" in2="SourceAlpha" in="flood" result="shadow"></feComposite><feOffset dx="-4" dy="-4" in="SourceGraphic" result="offset-1"></feOffset><feOffset dx="4" dy="4" in="shadow" result="offset-2"></feOffset><feMerge><feMergeNode in="offset-2"></feMergeNode><feMergeNode in="offset-1"></feMergeNode></feMerge></filter></defs><g filter="url(#editing-gradow-filter)"><g transform="translate(69.07000732421875, 103.08718681335449)"><path d="M7.17 0L10.88-18.82L10.88-18.82Q9.02-36.16 2.50-39.87L2.50-39.87L2.50-39.87Q3.84-41.54 6.02-42.46L6.02-42.46L6.02-42.46Q8.19-43.39 10.82-43.39L10.82-43.39L10.82-43.39Q13.44-43.39 15.42-42.46L15.42-42.46L15.42-42.46Q17.41-41.54 18.69-39.55L18.69-39.55L18.69-39.55Q21.12-35.78 21.12-26.75L21.12-26.75L21.12-22.14L21.12-22.14Q24.96-33.41 28.80-38.27L28.80-38.27L28.80-38.27Q32.70-43.26 37.57-43.26L37.57-43.26L37.57-43.26Q39.49-43.26 40.77-42.27L40.77-42.27L40.77-42.27Q42.05-41.28 42.69-39.81L42.69-39.81L42.69-39.81Q37.76-37.63 33.02-31.36L33.02-31.36L33.02-31.36Q28.29-25.09 25.22-16.32L25.22-16.32L21.44 0L7.17 0ZM38.88-1.92L38.88-1.92L38.88-1.92Q37.38-3.58 36.70-6.21L36.70-6.21L36.70-6.21Q36.03-8.83 36.03-13.12L36.03-13.12L36.03-13.12Q36.03-17.41 37.50-21.31L37.50-21.31L37.50-21.31Q38.98-25.22 41.66-28.03L41.66-28.03L41.66-28.03Q47.17-33.92 56.26-33.92L56.26-33.92L56.26-33.92Q59.52-33.92 61.89-32.83L61.89-32.83L72.83-33.92L68.10-8.96L68.10-8.96Q67.90-8.19 67.90-6.78L67.90-6.78L67.90-6.78Q67.90-5.38 68.77-4.48L68.77-4.48L68.77-4.48Q69.63-3.58 70.91-3.46L70.91-3.46L70.91-3.46Q70.27-1.28 67.94 0L67.94 0L67.94 0Q65.60 1.28 62.98 1.28L62.98 1.28L62.98 1.28Q60.35 1.28 58.59 0.29L58.59 0.29L58.59 0.29Q56.83-0.70 56.32-2.37L56.32-2.37L56.32-2.37Q55.30-0.77 53.12 0.26L53.12 0.26L53.12 0.26Q50.94 1.28 48.03 1.28L48.03 1.28L48.03 1.28Q45.12 1.28 42.75 0.51L42.75 0.51L42.75 0.51Q40.38-0.26 38.88-1.92ZM52.38-27.90L52.38-27.90L52.38-27.90Q51.65-26.75 51.01-24.80L51.01-24.80L51.01-24.80Q50.37-22.85 49.31-17.63L49.31-17.63L49.31-17.63Q48.26-12.42 48.26-8.70L48.26-8.70L48.26-8.70Q48.26-4.99 48.83-3.90L48.83-3.90L48.83-3.90Q49.41-2.82 50.43-2.82L50.43-2.82L50.43-2.82Q52.48-2.82 53.98-4.77L53.98-4.77L53.98-4.77Q55.49-6.72 56.06-10.18L56.06-10.18L59.46-28.93L59.46-28.93Q58.11-30.08 56.54-30.08L56.54-30.08L56.54-30.08Q54.98-30.08 54.05-29.57L54.05-29.57L54.05-29.57Q53.12-29.06 52.38-27.90ZM122.37 1.28L122.37 1.28L122.37 1.28Q114.62 1.28 114.62-4.74L114.62-4.74L114.62-4.74Q114.62-7.36 115.74-12.45L115.74-12.45L115.74-12.45Q116.86-17.54 117.25-19.58L117.25-19.58L117.25-19.58Q118.14-24.26 118.14-25.73L118.14-25.73L118.14-25.73Q118.14-28.99 115.71-28.99L115.71-28.99L115.71-28.99Q114.11-28.99 112.58-26.78L112.58-26.78L112.58-26.78Q111.04-24.58 110.34-20.16L110.34-20.16L106.37 0L93.89 1.28L97.34-16.13L97.34-16.13Q97.92-19.01 98.43-22.27L98.43-22.27L98.43-22.27Q98.94-25.54 98.94-26.05L98.94-26.05L98.94-26.05Q98.94-28.99 96.77-28.99L96.77-28.99L96.77-28.99Q95.30-28.99 93.70-26.82L93.70-26.82L93.70-26.82Q92.10-24.64 91.20-20.16L91.20-20.16L87.30 0L74.69 1.28L81.41-32.64L91.84-33.92L90.75-27.46L90.75-27.46Q92.42-30.91 95.49-32.42L95.49-32.42L95.49-32.42Q98.56-33.92 103.36-33.92L103.36-33.92L103.36-33.92Q106.11-33.92 107.90-32.58L107.90-32.58L107.90-32.58Q109.70-31.23 110.27-29.06L110.27-29.06L110.27-29.06Q111.36-31.30 114.14-32.61L114.14-32.61L114.14-32.61Q116.93-33.92 120.35-33.92L120.35-33.92L120.35-33.92Q123.78-33.92 125.47-33.18L125.47-33.18L125.47-33.18Q127.17-32.45 128.19-31.23L128.19-31.23L128.19-31.23Q129.92-28.99 129.92-24.90L129.92-24.90L129.92-24.90Q129.92-20.86 128.19-12.48L128.19-12.48L128.19-12.48Q127.30-8.38 127.30-6.88L127.30-6.88L127.30-6.88Q127.30-5.38 128.16-4.48L128.16-4.48L128.16-4.48Q129.02-3.58 130.30-3.46L130.30-3.46L130.30-3.46Q129.66-1.28 127.46 0L127.46 0L127.46 0Q125.25 1.28 122.37 1.28ZM139.78-26.75L139.78-26.75L139.78-26.75Q141.95-29.82 145.25-31.87L145.25-31.87L145.25-31.87Q148.54-33.92 152.58-33.92L152.58-33.92L152.58-33.92Q156.61-33.92 158.53-32.64L158.53-32.64L171.07-33.92L166.72-9.34L166.72-9.34Q164.48 3.20 159.74 8.13L159.74 8.13L159.74 8.13Q155.20 12.80 146.37 12.80L146.37 12.80L146.37 12.80Q139.65 12.80 135.81 10.69L135.81 10.69L135.81 10.69Q131.97 8.58 131.97 5.06L131.97 5.06L131.97 5.06Q131.97 2.43 133.95 0.93L133.95 0.93L133.95 0.93Q135.94-0.58 139.01-0.58L139.01-0.58L139.01-0.58Q141.70-0.58 143.74 0.64L143.74 0.64L143.74 0.64Q144.96 1.28 145.54 2.18L145.54 2.18L145.54 2.18Q144.06 3.46 144.06 5.57L144.06 5.57L144.06 5.57Q144.06 8.32 146.62 8.32L146.62 8.32L146.62 8.32Q150.91 8.32 153.34-1.79L153.34-1.79L153.34-1.79Q154.05-4.54 154.62-7.30L154.62-7.30L154.62-7.30Q151.74-3.78 145.22-3.78L145.22-3.78L145.22-3.78Q140.67-3.78 138.05-5.95L138.05-5.95L138.05-5.95Q135.42-8.13 135.42-13.25L135.42-13.25L135.42-13.25Q135.42-16.45 136.51-20.06L136.51-20.06L136.51-20.06Q137.60-23.68 139.78-26.75ZM148.10-13.06L148.10-13.06L148.10-13.06Q148.10-8.70 150.34-8.70L150.34-8.70L150.34-8.70Q151.87-8.70 153.34-10.37L153.34-10.37L153.34-10.37Q154.50-11.71 154.94-13.70L154.94-13.70L158.21-30.14L158.21-30.14Q157.89-30.21 157.57-30.34L157.57-30.34L157.57-30.34Q156.93-30.59 156.10-30.59L156.10-30.59L156.10-30.59Q152.19-30.59 149.89-24.19L149.89-24.19L149.89-24.19Q148.10-19.20 148.10-13.06ZM187.52 1.28L187.52 1.28L187.52 1.28Q173.44 1.28 173.44-11.97L173.44-11.97L173.44-11.97Q173.44-21.38 178.62-27.46L178.62-27.46L178.62-27.46Q184.13-33.92 193.66-33.92L193.66-33.92L193.66-33.92Q200.58-33.92 204.10-30.72L204.10-30.72L204.10-30.72Q207.62-27.52 207.62-20.80L207.62-20.80L207.62-20.80Q207.62-10.56 202.11-4.61L202.11-4.61L202.11-4.61Q196.74 1.28 187.52 1.28ZM189.18-26.56L189.18-26.56L189.18-26.56Q188.42-24.83 187.81-22.24L187.81-22.24L187.81-22.24Q187.20-19.65 186.43-15.55L186.43-15.55L186.43-15.55Q185.66-11.46 185.66-6.40L185.66-6.40L185.66-6.40Q185.66-4.74 186.21-3.65L186.21-3.65L186.21-3.65Q186.75-2.56 188.22-2.56L188.22-2.56L188.22-2.56Q189.70-2.56 190.62-3.26L190.62-3.26L190.62-3.26Q191.55-3.97 192.26-5.63L192.26-5.63L192.26-5.63Q193.54-8.58 194.56-14.05L194.56-14.05L194.56-14.05Q195.58-19.52 195.68-21.89L195.68-21.89L195.68-21.89Q195.78-24.26 195.78-26.02L195.78-26.02L195.78-26.02Q195.78-27.78 195.26-28.93L195.26-28.93L195.26-28.93Q194.75-30.08 193.31-30.08L193.31-30.08L193.31-30.08Q191.87-30.08 190.91-29.18L190.91-29.18L190.91-29.18Q189.95-28.29 189.18-26.56ZM211.46 7.23L211.46 7.23L211.46 7.23Q211.46 5.12 212.80 3.81L212.80 3.81L212.80 3.81Q214.14 2.50 216.19 2.50L216.19 2.50L243.14 2.50L243.14 2.50Q243.46 3.58 243.46 4.42L243.46 4.42L243.46 4.42Q243.46 6.34 242.14 7.68L242.14 7.68L242.14 7.68Q240.83 9.02 238.14 9.02L238.14 9.02L211.71 9.02L211.71 9.02Q211.46 8.19 211.46 7.23ZM284.42-33.92L284.42-33.92L284.42-33.92Q279.23-33.92 275.46-35.65L275.46-35.65L273.41-25.28L285.76-25.28L285.76-25.28Q285.76-21.89 284.06-19.74L284.06-19.74L284.06-19.74Q282.37-17.60 279.30-17.60L279.30-17.60L279.30-17.60Q275.97-17.60 272.90-18.82L272.90-18.82L272.90-18.82Q272.26-19.07 272.19-19.14L272.19-19.14L268.54 0L254.59 0L262.72-42.24L291.26-42.24L291.26-42.24Q291.26-38.34 289.44-36.13L289.44-36.13L289.44-36.13Q287.62-33.92 284.42-33.92ZM292.00-1.92L292.00-1.92L292.00-1.92Q290.50-3.58 289.82-6.21L289.82-6.21L289.82-6.21Q289.15-8.83 289.15-13.12L289.15-13.12L289.15-13.12Q289.15-17.41 290.62-21.31L290.62-21.31L290.62-21.31Q292.10-25.22 294.78-28.03L294.78-28.03L294.78-28.03Q300.29-33.92 309.38-33.92L309.38-33.92L309.38-33.92Q312.64-33.92 315.01-32.83L315.01-32.83L325.95-33.92L321.22-8.96L321.22-8.96Q321.02-8.19 321.02-6.78L321.02-6.78L321.02-6.78Q321.02-5.38 321.89-4.48L321.89-4.48L321.89-4.48Q322.75-3.58 324.03-3.46L324.03-3.46L324.03-3.46Q323.39-1.28 321.06 0L321.06 0L321.06 0Q318.72 1.28 316.10 1.28L316.10 1.28L316.10 1.28Q313.47 1.28 311.71 0.29L311.71 0.29L311.71 0.29Q309.95-0.70 309.44-2.37L309.44-2.37L309.44-2.37Q308.42-0.77 306.24 0.26L306.24 0.26L306.24 0.26Q304.06 1.28 301.15 1.28L301.15 1.28L301.15 1.28Q298.24 1.28 295.87 0.51L295.87 0.51L295.87 0.51Q293.50-0.26 292.00-1.92ZM305.50-27.90L305.50-27.90L305.50-27.90Q304.77-26.75 304.13-24.80L304.13-24.80L304.13-24.80Q303.49-22.85 302.43-17.63L302.43-17.63L302.43-17.63Q301.38-12.42 301.38-8.70L301.38-8.70L301.38-8.70Q301.38-4.99 301.95-3.90L301.95-3.90L301.95-3.90Q302.53-2.82 303.55-2.82L303.55-2.82L303.55-2.82Q305.60-2.82 307.10-4.77L307.10-4.77L307.10-4.77Q308.61-6.72 309.18-10.18L309.18-10.18L312.58-28.93L312.58-28.93Q311.23-30.08 309.66-30.08L309.66-30.08L309.66-30.08Q308.10-30.08 307.17-29.57L307.17-29.57L307.17-29.57Q306.24-29.06 305.50-27.90ZM341.73 0.64L341.73 0.64L341.73 0.64Q338.69 0 337.12-0.29L337.12-0.29L337.12-0.29Q335.55-0.58 333.73-0.58L333.73-0.58L333.73-0.58Q331.90-0.58 330.11 0.06L330.11 0.06L330.11 0.06Q329.15-0.51 328.54-1.66L328.54-1.66L328.54-1.66Q327.94-2.82 327.94-4.61L327.94-4.61L327.94-4.61Q327.94-8.38 331.78-11.26L331.78-11.26L348.03-22.98L348.03-22.98Q343.49-24.26 339.36-24.26L339.36-24.26L339.36-24.26Q335.23-24.26 333.76-21.44L333.76-21.44L333.76-21.44Q331.58-24 331.58-28.03L331.58-28.03L331.58-28.03Q331.58-30.72 333.54-32.48L333.54-32.48L333.54-32.48Q335.49-34.24 339.58-34.24L339.58-34.24L339.58-34.24Q341.89-34.24 343.97-33.95L343.97-33.95L343.97-33.95Q346.05-33.66 347.90-33.41L347.90-33.41L351.36-32.90L351.36-32.90Q353.02-32.64 354.72-32.64L354.72-32.64L354.72-32.64Q356.42-32.64 357.70-33.34L357.70-33.34L357.70-33.34Q359.36-31.81 359.36-29.70L359.36-29.70L359.36-29.70Q359.36-26.37 355.26-22.91L355.26-22.91L339.07-10.82L339.07-10.82Q344.06-9.34 346.62-9.34L346.62-9.34L346.62-9.34Q352.00-9.34 354.30-11.90L354.30-11.90L354.30-11.90Q356.10-9.86 356.10-6.30L356.10-6.30L356.10-6.30Q356.10-2.75 353.79-0.74L353.79-0.74L353.79-0.74Q351.49 1.28 347.33 1.28L347.33 1.28L347.33 1.28Q344.77 1.28 341.73 0.64Z" fill="url(#editing-gradow-gradient)"></path></g></g><style>text {
  font-size: 64px;
  font-family: Arial Black;
  dominant-baseline: central;
  text-anchor: middle;
}</style></svg>